<svg width="24" height="24" viewBox="0 0 24 24" fill="none" xmlns="http://www.w3.org/2000/svg">
<path d="M17.5556 18.2H18.0556V17.7V7.3V6.8H17.5556H7.44444H6.94444V7.3V17.7V18.2H7.44444H17.5556ZM18.2778 18.5H6.72222C6.64439 18.5 6.58348 18.4717 6.54602 18.438C6.50939 18.405 6.5 18.3733 6.5 18.35V6.65C6.5 6.62676 6.50939 6.59499 6.54602 6.56203C6.58349 6.52831 6.64439 6.5 6.72222 6.5H18.2778C18.3556 6.5 18.4165 6.52831 18.454 6.56203C18.4906 6.59499 18.5 6.62675 18.5 6.65V18.35C18.5 18.3733 18.4906 18.405 18.454 18.438C18.4165 18.4717 18.3556 18.5 18.2778 18.5ZM9.38889 9.1H11.2778V10.7H9.38889V9.1ZM9.38889 13H15.6111V13.3H9.38889V13ZM9.38889 15.6H15.6111V15.9H9.38889V15.6ZM13.7222 9.75H15.6111V10.05H13.7222V9.75Z" stroke="black"/>
</svg>
