<svg width="24" height="24" viewBox="0 0 24 24" fill="none" xmlns="http://www.w3.org/2000/svg">
<path d="M9.67505 17.7948L9.51166 17.7074L9.3308 17.7476L6.65854 18.3415L7.25237 15.6692L7.29256 15.4883L7.20519 15.3249C6.75529 14.4836 6.5 13.5224 6.5 12.5C6.5 9.18629 9.18629 6.5 12.5 6.5C15.8137 6.5 18.5 9.18629 18.5 12.5C18.5 15.8137 15.8137 18.5 12.5 18.5C11.4776 18.5 10.5164 18.2447 9.67505 17.7948ZM9.81649 17.5302L9.8165 17.5302C10.6354 17.9681 11.5503 18.2 12.5 18.2C15.648 18.2 18.2 15.648 18.2 12.5C18.2 9.35198 15.648 6.8 12.5 6.8C9.35198 6.8 6.8 9.35198 6.8 12.5C6.8 13.4497 7.03185 14.3646 7.46975 15.1835L7.88033 14.9639L7.46975 15.1835L7.60954 15.4449L7.22411 17.1793L7.05366 17.9463L7.82067 17.7759L9.55508 17.3904L9.81649 17.5302Z" stroke="black"/>
</svg>
